<?xml version="1.0" encoding="UTF-8"?>
<svg width="40px" height="40px" viewBox="0 0 40 40" version="1.1" xmlns="http://www.w3.org/2000/svg" xmlns:xlink="http://www.w3.org/1999/xlink">
    <!-- Generator: Sketch 50.2 (55047) - http://www.bohemiancoding.com/sketch -->
    <title>icon-queued</title>
    <desc>Created with Sketch.</desc>
    <defs></defs>
    <g id="Page-1" stroke="none" stroke-width="1" fill="none" fill-rule="evenodd">
        <g id="dockup---index---scroll" transform="translate(-575.000000, -457.000000)" fill="#7A60E9">
            <g id="row" transform="translate(575.000000, 434.000000)">
                <path d="M11.2315721,39 C12.6000157,35.963129 16.0902724,34 20,34 C24.9705627,34 29,38.0294373 29,43 C29,47.9705627 24.9705627,52 20,52 C19.7238576,52 19.5,52.2238576 19.5,52.5 C19.5,52.7761424 19.7238576,53 20,53 C25.5228475,53 30,48.5228475 30,43 C30,37.4771525 25.5228475,33 20,33 C16.2522483,33 12.8278195,34.6626811 11,37.3701036 L11,35.5 C11,35.2238576 10.7761424,35 10.5,35 C10.2238576,35 10,35.2238576 10,35.5 L10,39.4884713 C9.99935756,39.5159371 10.0010031,39.5431938 10.0048121,39.5699925 C10.0059353,39.5776684 10.0071859,39.5852944 10.0086068,39.5928604 C10.0222989,39.6649554 10.0517208,39.7331383 10.0943698,39.7924055 C10.1765037,39.9061438 10.3052991,39.9839593 10.4526953,39.9977915 C10.4724362,39.9997618 10.4921252,40.0004571 10.5116713,40 L14.5,40 C14.7761424,40 15,39.7761424 15,39.5 C15,39.2238576 14.7761424,39 14.5,39 L11.2315721,39 Z M20,63 C8.954305,63 0,54.045695 0,43 C0,31.954305 8.954305,23 20,23 C31.045695,23 40,31.954305 40,43 C40,54.045695 31.045695,63 20,63 Z M19.5,43.7898334 L16.6462572,46.6466361 C16.4510997,46.8420029 16.4512694,47.1585853 16.6466361,47.3537428 C16.8420029,47.5489003 17.1585853,47.5487306 17.3537428,47.3533639 L20.3537428,44.3501471 C20.4473951,44.2563944 20.5,44.1292986 20.5,43.9967832 L20.5,39 C20.5,38.7238576 20.2761424,38.5 20,38.5 C19.7238576,38.5 19.5,38.7238576 19.5,39 L19.5,43.7898334 Z" id="icon-queued"></path>
            </g>
        </g>
    </g>
</svg>