<?xml version="1.0" encoding="UTF-8"?>
<svg width="40px" height="40px" viewBox="0 0 40 40" version="1.1" xmlns="http://www.w3.org/2000/svg" xmlns:xlink="http://www.w3.org/1999/xlink">
    <!-- Generator: Sketch 50.2 (55047) - http://www.bohemiancoding.com/sketch -->
    <title>icon-deployed</title>
    <desc>Created with Sketch.</desc>
    <defs></defs>
    <g id="Page-1" stroke="none" stroke-width="1" fill="none" fill-rule="evenodd">
        <path d="M20,40 C8.954305,40 0,31.045695 0,20 C0,8.954305 8.954305,0 20,0 C31.045695,0 40,8.954305 40,20 C40,31.045695 31.045695,40 20,40 Z M27.0588235,12.2647059 L19.3269607,26.7619487 L12.7906191,22.0931333 C12.5659128,21.9326288 12.2536378,21.9846746 12.0931333,22.2093809 C11.9326288,22.4340872 11.9846746,22.7463622 12.2093809,22.9068667 L19.2093809,27.9068667 C19.4550802,28.0823662 19.7990867,28.0017124 19.9411765,27.7352941 L27.9411765,12.7352941 C28.0711258,12.4916391 27.9789492,12.1887729 27.7352941,12.0588235 C27.4916391,11.9288742 27.1887729,12.0210508 27.0588235,12.2647059 Z" id="icon-deployed" fill="#009F61"></path>
    </g>
</svg>