<?xml version="1.0" encoding="UTF-8"?>
<svg width="40px" height="40px" viewBox="0 0 40 40" version="1.1" xmlns="http://www.w3.org/2000/svg" xmlns:xlink="http://www.w3.org/1999/xlink">
    <!-- Generator: Sketch 50.2 (55047) - http://www.bohemiancoding.com/sketch -->
    <title>icon-hibernated</title>
    <desc>Created with Sketch.</desc>
    <defs></defs>
    <g id="Page-1" stroke="none" stroke-width="1" fill="none" fill-rule="evenodd">
        <g id="dockup---index---scroll" transform="translate(-575.000000, -614.000000)" fill="#777777">
            <g id="row" transform="translate(575.000000, 594.000000)">
                <path d="M20,60 C8.954305,60 0,51.045695 0,40 C0,28.954305 8.954305,20 20,20 C31.045695,20 40,28.954305 40,40 C40,51.045695 31.045695,60 20,60 Z M19.5,30.5 L19.5,37.5 C19.5,37.7761424 19.7238576,38 20,38 C20.2761424,38 20.5,37.7761424 20.5,37.5 L20.5,30.5 C20.5,30.2238576 20.2761424,30 20,30 C19.7238576,30 19.5,30.2238576 19.5,30.5 Z M24.0335172,33.9275136 C26.4589122,35.3994775 28,38.0354865 28,40.8778509 C28,45.3424493 24.4169554,49.0000732 20,49.0000732 C15.5520675,49.0000732 12,45.3997876 12,40.8778509 C12,38.0354865 13.5410878,35.3994775 15.9664828,33.9275136 C16.2025517,33.7842443 16.2777805,33.4767299 16.1345112,33.240661 C15.9912418,33.0045922 15.6837274,32.9293633 15.4476586,33.0726327 C12.7286632,34.7227816 11,37.6796357 11,40.8778509 C11,45.9490767 14.9967421,50.0000732 20,50.0000732 C24.9739036,50.0000732 29,45.8901756 29,40.8778509 C29,37.6796357 27.2713368,34.7227816 24.5523414,33.0726327 C24.3162726,32.9293633 24.0087582,33.0045922 23.8654888,33.240661 C23.7222195,33.4767299 23.7974483,33.7842443 24.0335172,33.9275136 Z" id="icon-hibernated"></path>
            </g>
        </g>
    </g>
</svg>