<?xml version="1.0" encoding="UTF-8"?>
<svg width="40px" height="40px" viewBox="0 0 40 40" version="1.1" xmlns="http://www.w3.org/2000/svg" xmlns:xlink="http://www.w3.org/1999/xlink">
    <!-- Generator: Sketch 50.2 (55047) - http://www.bohemiancoding.com/sketch -->
    <title>icon-errored</title>
    <desc>Created with Sketch.</desc>
    <defs></defs>
    <g id="Page-1" stroke="none" stroke-width="1" fill="none" fill-rule="evenodd">
        <g id="dockup---index---scroll" transform="translate(-575.000000, -694.000000)" fill="#DE2F38">
            <g id="row" transform="translate(575.000000, 674.000000)">
                <path d="M20,39.2928932 L10.8535534,30.1464466 C10.6582912,29.9511845 10.3417088,29.9511845 10.1464466,30.1464466 C9.95118446,30.3417088 9.95118446,30.6582912 10.1464466,30.8535534 L19.2928932,40 L10.1464466,49.1464466 C9.95118446,49.3417088 9.95118446,49.6582912 10.1464466,49.8535534 C10.3417088,50.0488155 10.6582912,50.0488155 10.8535534,49.8535534 L20,40.7071068 L29.1464466,49.8535534 C29.3417088,50.0488155 29.6582912,50.0488155 29.8535534,49.8535534 C30.0488155,49.6582912 30.0488155,49.3417088 29.8535534,49.1464466 L20.7071068,40 L29.8535534,30.8535534 C30.0488155,30.6582912 30.0488155,30.3417088 29.8535534,30.1464466 C29.6582912,29.9511845 29.3417088,29.9511845 29.1464466,30.1464466 L20,39.2928932 Z M20,60 C8.954305,60 0,51.045695 0,40 C0,28.954305 8.954305,20 20,20 C31.045695,20 40,28.954305 40,40 C40,51.045695 31.045695,60 20,60 Z" id="icon-errored"></path>
            </g>
        </g>
    </g>
</svg>